<svg width="320" height="228" viewBox="0 0 320 228" fill="none" xmlns="http://www.w3.org/2000/svg">
<g id="Frame 244" opacity="0.5" clip-path="url(#clip0_9_565)">
<mask id="mask0_9_565" style="mask-type:alpha" maskUnits="userSpaceOnUse" x="-104" y="-1" width="772" height="229">
<path id="Vector" d="M295.056 175.84C368.474 201.453 444.411 228 518.992 228C572.845 228 621.468 214.352 667.572 186.122L667.572 65.9109C621.274 92.0844 572.457 104.984 518.798 104.984C441.311 104.984 363.825 77.8759 289.05 51.7024C215.632 26.0897 139.695 -0.457733 65.3081 -0.457726C3.70628 -0.457721 -51.6966 17.6768 -104 55.2546L-104 174.344C-51.6966 139.384 3.90002 122.558 65.3081 122.558C142.795 122.745 220.281 149.853 295.056 175.84Z" fill="url(#paint0_linear_9_565)"/>
</mask>
<g mask="url(#mask0_9_565)">
<path id="Vector_2" d="M295.056 175.84C368.474 201.453 444.411 228 518.992 228C572.845 228 621.468 214.352 667.572 186.122L667.572 65.9109C621.274 92.0844 572.457 104.984 518.798 104.984C441.311 104.984 363.825 77.8759 289.05 51.7024C215.632 26.0897 139.695 -0.457736 65.3081 -0.457729C3.70627 -0.457724 -51.6966 17.6768 -104 55.2546L-104 174.344C-51.6966 139.384 3.9 122.558 65.3081 122.558C142.795 122.745 220.281 149.853 295.056 175.84Z" fill="url(#paint1_linear_9_565)"/>
<path id="Vector_3" d="M39.4872 -17.2837C127.497 -7.54373 211.874 33.0068 293.509 72.1775C373.674 110.54 456.581 150.282 541.291 159.657C602.457 166.426 659.402 157.014 715.321 130.698L730.43 -5.8258C674.549 18.1262 617.479 26.6632 556.753 19.9426C468.743 10.2026 384.146 -30.3723 302.511 -69.543C222.346 -107.905 139.439 -147.647 54.9492 -156.998C-15.0185 -164.741 -80.472 -150.889 -144.365 -114.909L-159.357 20.5524C-95.5492 -12.6395 -30.4806 -25.027 39.4872 -17.2837Z" fill="url(#paint2_linear_9_565)"/>
<path id="Vector_4" d="M309.249 51.0397C380.118 78.9697 453.414 107.902 527.362 115.597C588.601 121.969 645.368 113.322 700.275 88.8773L710.113 -5.67531C655.23 16.6715 598.571 24.2796 537.525 17.9274C460.496 9.9121 385.899 -19.6062 313.727 -48.1218C242.858 -76.0518 169.562 -104.984 95.4214 -112.699C41.8859 -118.27 -7.57766 -112.464 -55.7425 -94.8194L-65.6584 0.475354C-17.4709 -15.5163 32.1234 -20.7086 85.2738 -15.178C162.272 -6.86578 236.885 22.504 309.249 51.0397Z" fill="url(#paint3_linear_9_565)"/>
<path id="Vector_5" d="M248.86 273.81C331.562 300.359 417.099 327.868 501.81 331.164C571.962 333.894 635.917 319.863 696.588 287.994L700.803 179.679C640.003 209.159 576.094 222 506.163 219.279C417.922 215.846 330.861 187.766 246.634 160.647C163.932 134.099 78.3954 106.589 -6.53668 103.285C-67.8642 100.899 -123.718 111.158 -177.221 134.791L-181.468 243.956C-127.818 222.201 -71.7694 212.632 -10.883 215C77.3449 218.774 164.413 246.684 248.86 273.81Z" fill="url(#paint4_linear_9_565)" fill-opacity="0.3"/>
</g>
</g>
<defs>
<linearGradient id="paint0_linear_9_565" x1="667.572" y1="89.3581" x2="-168.508" y2="94.6953" gradientUnits="userSpaceOnUse">
<stop stop-color="#FF01FF"/>
<stop offset="0.437418" stop-color="#652CF9"/>
<stop offset="1" stop-color="#040093"/>
</linearGradient>
<linearGradient id="paint1_linear_9_565" x1="667.572" y1="89.3581" x2="-168.508" y2="94.6953" gradientUnits="userSpaceOnUse">
<stop stop-color="#18D9E2"/>
<stop offset="0.437418" stop-color="#4920DC"/>
<stop offset="1" stop-color="#040093"/>
</linearGradient>
<linearGradient id="paint2_linear_9_565" x1="726.042" y1="93.2778" x2="-243.319" y2="-60.0087" gradientUnits="userSpaceOnUse">
<stop offset="0.0436055" stop-color="#FD02FF"/>
<stop offset="0.268925" stop-color="#4920DC"/>
<stop offset="0.748858" stop-color="#1207A2"/>
</linearGradient>
<linearGradient id="paint3_linear_9_565" x1="-55.9135" y1="-5.44652" x2="730.429" y2="24.7113" gradientUnits="userSpaceOnUse">
<stop offset="0.447664" stop-color="#4DB0FF"/>
<stop offset="0.872591" stop-color="#652CF9"/>
</linearGradient>
<linearGradient id="paint4_linear_9_565" x1="-170.817" y1="236.498" x2="726.162" y2="212.755" gradientUnits="userSpaceOnUse">
<stop stop-color="#1E00CA"/>
<stop offset="0.447664" stop-color="#652CF9"/>
<stop offset="0.872591" stop-color="#4DB0FF"/>
</linearGradient>
<clipPath id="clip0_9_565">
<rect width="610" height="228" fill="white"/>
</clipPath>
</defs>
</svg>
