<svg width="690" height="155" viewBox="0 0 690 155" fill="none" xmlns="http://www.w3.org/2000/svg">
<g opacity="0.6" clip-path="url(#clip0_2_17)">
<mask id="mask0_2_17" style="mask-type:alpha" maskUnits="userSpaceOnUse" x="-102" y="0" width="800" height="237">
<path d="M311.758 182.793C387.882 209.35 466.617 236.875 543.945 236.875C599.783 236.875 650.197 222.725 698 193.454L698 68.814C649.996 95.9519 599.381 109.327 543.744 109.327C463.403 109.327 383.062 81.2199 305.532 54.082C229.409 27.5256 150.674 6.31076e-05 73.5461 6.98503e-05C9.67466 7.54341e-05 -47.7696 18.8028 -102 57.7651L-102 181.243C-47.7695 144.994 9.87554 127.548 73.5461 127.548C153.888 127.742 234.229 155.849 311.758 182.793Z" fill="url(#paint0_linear_2_17)"/>
</mask>
<g mask="url(#mask0_2_17)">
<path d="M311.758 182.793C387.882 209.35 466.617 236.875 543.945 236.875C599.783 236.875 650.197 222.725 698 193.454L698 68.814C649.996 95.9519 599.381 109.327 543.744 109.327C463.403 109.327 383.062 81.2199 305.532 54.082C229.409 27.5256 150.674 6.31076e-05 73.5461 6.98503e-05C9.67466 7.54341e-05 -47.7696 18.8028 -102 57.7651L-102 181.243C-47.7695 144.994 9.87554 127.548 73.5461 127.548C153.888 127.742 234.229 155.849 311.758 182.793Z" fill="url(#paint1_linear_2_17)"/>
<path d="M46.7658 -17.4468C138.018 -7.34795 225.504 34.6966 310.147 75.3106C393.265 115.086 479.228 156.293 567.058 166.013C630.478 173.031 689.521 163.273 747.5 135.988L763.166 -5.56671C705.227 19.2678 646.054 28.1193 583.09 21.1511C491.837 11.0522 404.123 -31.0176 319.481 -71.6315C236.362 -111.407 150.4 -152.614 62.7976 -162.309C-9.74804 -170.337 -77.613 -155.975 -143.861 -118.669L-159.404 21.7833C-93.2458 -12.6315 -25.7798 -25.4754 46.7658 -17.4468Z" fill="url(#paint2_linear_2_17)"/>
<path d="M326.482 53.3943C399.962 82.3534 475.959 112.352 552.631 120.33C616.126 126.937 674.985 117.972 731.915 92.626L742.116 -5.41028C685.21 17.7599 626.464 25.6483 563.169 19.0621C483.301 10.7514 405.955 -19.8544 331.125 -49.4206C257.645 -78.3797 181.648 -108.378 104.776 -116.377C49.2678 -122.153 -2.01818 -116.133 -51.9576 -97.8388L-62.2389 0.96701C-12.276 -15.6138 39.1457 -20.9974 94.2543 -15.2631C174.09 -6.64462 251.452 23.8073 326.482 53.3943Z" fill="url(#paint3_linear_2_17)"/>
<path d="M263.864 284.375C349.613 311.902 438.301 340.425 526.134 343.842C598.87 346.672 665.181 332.125 728.089 299.082L732.458 186.776C669.418 217.342 603.155 230.656 530.647 227.835C439.155 224.275 348.886 195.16 261.556 167.043C175.807 139.517 87.1186 110.993 -0.942691 107.567C-64.5298 105.093 -122.442 115.73 -177.916 140.234L-182.319 253.421C-126.692 230.865 -68.5788 220.942 -5.44917 223.399C86.0294 227.311 176.305 256.249 263.864 284.375Z" fill="url(#paint4_linear_2_17)" fill-opacity="0.3"/>
</g>
</g>
<defs>
<linearGradient id="paint0_linear_2_17" x1="698" y1="93.1251" x2="-168.885" y2="98.6589" gradientUnits="userSpaceOnUse">
<stop stop-color="#FF01FF"/>
<stop offset="0.437418" stop-color="#652CF9"/>
<stop offset="1" stop-color="#040093"/>
</linearGradient>
<linearGradient id="paint1_linear_2_17" x1="698" y1="93.1251" x2="-168.885" y2="98.6589" gradientUnits="userSpaceOnUse">
<stop stop-color="#18D9E2"/>
<stop offset="0.437418" stop-color="#4920DC"/>
<stop offset="1" stop-color="#040093"/>
</linearGradient>
<linearGradient id="paint2_linear_2_17" x1="758.616" y1="97.1882" x2="-246.46" y2="-61.746" gradientUnits="userSpaceOnUse">
<stop offset="0.0436055" stop-color="#FD02FF"/>
<stop offset="0.268925" stop-color="#4920DC"/>
<stop offset="0.748858" stop-color="#1207A2"/>
</linearGradient>
<linearGradient id="paint3_linear_2_17" x1="-52.1349" y1="-5.17307" x2="763.18" y2="26.0959" gradientUnits="userSpaceOnUse">
<stop offset="0.447664" stop-color="#4DB0FF"/>
<stop offset="0.872591" stop-color="#652CF9"/>
</linearGradient>
<linearGradient id="paint4_linear_2_17" x1="-171.276" y1="245.688" x2="758.752" y2="221.071" gradientUnits="userSpaceOnUse">
<stop stop-color="#1E00CA"/>
<stop offset="0.447664" stop-color="#652CF9"/>
<stop offset="0.872591" stop-color="#4DB0FF"/>
</linearGradient>
<clipPath id="clip0_2_17">
<rect width="690" height="155" fill="white"/>
</clipPath>
</defs>
</svg>
