<svg width="320" height="127" viewBox="0 0 320 127" fill="none" xmlns="http://www.w3.org/2000/svg">
<g id="Frame 244" opacity="0.6" clip-path="url(#clip0_9_540)">
<mask id="mask0_9_540" style="mask-type:alpha" maskUnits="userSpaceOnUse" x="-88" y="0" width="446" height="133">
<path id="Vector" d="M142.67 102.634C185.109 117.545 229.004 133 272.114 133C303.244 133 331.35 125.055 358 108.62L358 38.6375C331.238 53.8748 303.02 61.3846 272.003 61.3846C227.212 61.3846 182.422 45.6031 139.199 30.3658C96.7603 15.455 52.8657 6.95742e-05 9.86697 7.33601e-05C-25.7414 7.64953e-05 -57.7665 10.5574 -88 32.4338L-88 101.764C-57.7665 81.4109 -25.6294 71.6154 9.86697 71.6154C54.6573 71.7243 99.4477 87.5058 142.67 102.634Z" fill="url(#paint0_linear_9_540)"/>
</mask>
<g mask="url(#mask0_9_540)">
<path id="Vector_2" d="M142.67 102.634C185.109 117.545 229.004 133 272.114 133C303.244 133 331.35 125.055 358 108.62L358 38.6375C331.238 53.8748 303.02 61.3846 272.003 61.3846C227.212 61.3846 182.422 45.6031 139.199 30.3658C96.7603 15.455 52.8657 6.95742e-05 9.86697 7.33601e-05C-25.7414 7.64953e-05 -57.7665 10.5574 -88 32.4338L-88 101.764C-57.7665 81.4109 -25.6294 71.6154 9.86697 71.6154C54.6573 71.7243 99.4477 87.5058 142.67 102.634Z" fill="url(#paint1_linear_9_540)"/>
<path id="Vector_3" d="M-5.06294 -9.79601C45.8103 -4.12575 94.5837 19.4813 141.772 42.2851C188.11 64.6183 236.034 87.7547 285 93.2123C320.357 97.1532 353.273 91.6739 385.597 76.3539L394.33 -3.12563C362.029 10.8184 329.04 15.7883 293.938 11.8758C243.064 6.20554 194.164 -17.4157 146.976 -40.2195C100.637 -62.5527 52.713 -85.6891 3.87476 -91.1326C-36.5694 -95.6404 -74.4042 -87.5764 -111.337 -66.6297L-120.003 12.2308C-83.1195 -7.09234 -45.5071 -14.3039 -5.06294 -9.79601Z" fill="url(#paint2_linear_9_540)"/>
<path id="Vector_4" d="M150.878 29.9797C191.844 46.2396 234.212 63.0831 276.957 67.5627C312.355 71.2724 345.169 66.2384 376.907 52.0074L382.595 -3.03774C350.87 9.97179 318.119 14.4009 282.832 10.7029C238.305 6.03669 195.185 -11.1478 153.467 -27.7485C112.502 -44.0084 70.1339 -60.852 27.2775 -65.3432C-3.66826 -68.5863 -32.2602 -65.2062 -60.1014 -54.9342L-65.8333 0.542952C-37.9789 -8.76679 -9.31136 -11.7896 21.4117 -8.56987C65.9201 -3.73079 109.049 13.3673 150.878 29.9797Z" fill="url(#paint3_linear_9_540)"/>
<path id="Vector_5" d="M115.969 159.67C163.774 175.126 213.218 191.141 262.185 193.06C302.735 194.649 339.704 186.481 374.774 167.928L377.21 104.871C342.066 122.033 305.124 129.508 264.701 127.924C213.694 125.925 163.369 109.578 114.683 93.7908C66.8775 78.3355 17.4337 62.3202 -31.6605 60.3965C-67.1103 59.0075 -99.3963 64.9797 -130.323 78.7381L-132.778 142.29C-101.766 129.625 -69.3676 124.054 -34.1728 125.433C16.8265 127.63 67.1552 143.878 115.969 159.67Z" fill="url(#paint4_linear_9_540)" fill-opacity="0.3"/>
</g>
</g>
<defs>
<linearGradient id="paint0_linear_9_540" x1="358" y1="52.2876" x2="-125.289" y2="55.3509" gradientUnits="userSpaceOnUse">
<stop stop-color="#FF01FF"/>
<stop offset="0.437418" stop-color="#652CF9"/>
<stop offset="1" stop-color="#040093"/>
</linearGradient>
<linearGradient id="paint1_linear_9_540" x1="358" y1="52.2876" x2="-125.289" y2="55.3509" gradientUnits="userSpaceOnUse">
<stop stop-color="#18D9E2"/>
<stop offset="0.437418" stop-color="#4920DC"/>
<stop offset="1" stop-color="#040093"/>
</linearGradient>
<linearGradient id="paint2_linear_9_540" x1="391.794" y1="54.5689" x2="-168.729" y2="-33.4396" gradientUnits="userSpaceOnUse">
<stop offset="0.0436055" stop-color="#FD02FF"/>
<stop offset="0.268925" stop-color="#4920DC"/>
<stop offset="0.748858" stop-color="#1207A2"/>
</linearGradient>
<linearGradient id="paint3_linear_9_540" x1="-60.2003" y1="-2.90455" x2="394.347" y2="14.4048" gradientUnits="userSpaceOnUse">
<stop offset="0.447664" stop-color="#4DB0FF"/>
<stop offset="0.872591" stop-color="#652CF9"/>
</linearGradient>
<linearGradient id="paint4_linear_9_540" x1="-126.621" y1="137.948" x2="391.874" y2="124.321" gradientUnits="userSpaceOnUse">
<stop stop-color="#1E00CA"/>
<stop offset="0.447664" stop-color="#652CF9"/>
<stop offset="0.872591" stop-color="#4DB0FF"/>
</linearGradient>
<clipPath id="clip0_9_540">
<rect width="320" height="127" fill="white"/>
</clipPath>
</defs>
</svg>
