<svg width="792" height="237" viewBox="0 0 792 237" fill="none" xmlns="http://www.w3.org/2000/svg">
<g opacity="0.6" clip-path="url(#clip0_33_2)">
<mask id="mask0_33_2" style="mask-type:alpha" maskUnits="userSpaceOnUse" x="0" y="0" width="800" height="237">
<path d="M413.758 182.793C489.882 209.35 568.617 236.875 645.945 236.875C701.783 236.875 752.197 222.725 800 193.454L800 68.814C751.996 95.9519 701.381 109.327 645.744 109.327C565.403 109.327 485.062 81.2199 407.532 54.082C331.409 27.5256 252.674 6.31076e-05 175.546 6.98503e-05C111.675 7.54341e-05 54.2304 18.8028 -1.56583e-05 57.7651L-4.86356e-06 181.243C54.2305 144.994 111.876 127.548 175.546 127.548C255.888 127.742 336.229 155.849 413.758 182.793Z" fill="url(#paint0_linear_33_2)"/>
</mask>
<g mask="url(#mask0_33_2)">
<path d="M413.758 182.793C489.882 209.35 568.617 236.875 645.945 236.875C701.783 236.875 752.197 222.725 800 193.454L800 68.814C751.996 95.9519 701.381 109.327 645.744 109.327C565.403 109.327 485.062 81.2199 407.532 54.082C331.409 27.5256 252.674 6.31076e-05 175.546 6.98503e-05C111.675 7.54341e-05 54.2304 18.8028 -1.56583e-05 57.7651L-4.86356e-06 181.243C54.2305 144.994 111.876 127.548 175.546 127.548C255.888 127.742 336.229 155.849 413.758 182.793Z" fill="url(#paint1_linear_33_2)"/>
<path d="M148.766 -17.4468C240.018 -7.34795 327.504 34.6966 412.147 75.3106C495.265 115.086 581.228 156.293 669.058 166.013C732.478 173.031 791.521 163.273 849.5 135.988L865.166 -5.56671C807.227 19.2678 748.054 28.1193 685.09 21.1511C593.837 11.0522 506.123 -31.0176 421.481 -71.6315C338.362 -111.407 252.4 -152.614 164.798 -162.309C92.252 -170.337 24.387 -155.975 -41.8605 -118.669L-57.4042 21.7833C8.75416 -12.6315 76.2202 -25.4754 148.766 -17.4468Z" fill="url(#paint2_linear_33_2)"/>
<path d="M428.482 53.3943C501.962 82.3534 577.959 112.352 654.631 120.33C718.126 126.937 776.985 117.972 833.915 92.626L844.116 -5.41028C787.21 17.7599 728.464 25.6483 665.169 19.0621C585.301 10.7514 507.955 -19.8544 433.125 -49.4206C359.645 -78.3797 283.648 -108.378 206.776 -116.377C151.268 -122.153 99.9818 -116.133 50.0424 -97.8388L39.7611 0.96701C89.724 -15.6138 141.146 -20.9974 196.254 -15.2631C276.09 -6.64462 353.452 23.8073 428.482 53.3943Z" fill="url(#paint3_linear_33_2)"/>
<path d="M365.864 284.375C451.613 311.902 540.301 340.425 628.134 343.842C700.87 346.672 767.181 332.125 830.089 299.082L834.458 186.776C771.418 217.342 705.155 230.656 632.647 227.835C541.155 224.275 450.886 195.16 363.556 167.043C277.807 139.517 189.119 110.993 101.057 107.567C37.4702 105.093 -20.442 115.73 -75.9156 140.234L-80.3192 253.421C-24.6923 230.865 33.4212 220.942 96.5508 223.399C188.029 227.311 278.305 256.249 365.864 284.375Z" fill="url(#paint4_linear_33_2)" fill-opacity="0.3"/>
</g>
</g>
<defs>
<linearGradient id="paint0_linear_33_2" x1="800" y1="93.1251" x2="-66.8853" y2="98.6589" gradientUnits="userSpaceOnUse">
<stop stop-color="#FF01FF"/>
<stop offset="0.437418" stop-color="#652CF9"/>
<stop offset="1" stop-color="#040093"/>
</linearGradient>
<linearGradient id="paint1_linear_33_2" x1="800" y1="93.1251" x2="-66.8853" y2="98.6589" gradientUnits="userSpaceOnUse">
<stop stop-color="#18D9E2"/>
<stop offset="0.437418" stop-color="#4920DC"/>
<stop offset="1" stop-color="#040093"/>
</linearGradient>
<linearGradient id="paint2_linear_33_2" x1="860.616" y1="97.1882" x2="-144.46" y2="-61.746" gradientUnits="userSpaceOnUse">
<stop offset="0.0436055" stop-color="#FD02FF"/>
<stop offset="0.268925" stop-color="#4920DC"/>
<stop offset="0.748858" stop-color="#1207A2"/>
</linearGradient>
<linearGradient id="paint3_linear_33_2" x1="49.8651" y1="-5.17307" x2="865.18" y2="26.0959" gradientUnits="userSpaceOnUse">
<stop offset="0.447664" stop-color="#4DB0FF"/>
<stop offset="0.872591" stop-color="#652CF9"/>
</linearGradient>
<linearGradient id="paint4_linear_33_2" x1="-69.2756" y1="245.688" x2="860.752" y2="221.071" gradientUnits="userSpaceOnUse">
<stop stop-color="#1E00CA"/>
<stop offset="0.447664" stop-color="#652CF9"/>
<stop offset="0.872591" stop-color="#4DB0FF"/>
</linearGradient>
<clipPath id="clip0_33_2">
<rect width="792" height="237" fill="white"/>
</clipPath>
</defs>
</svg>
